
<svg xmlns="http://www.w3.org/2000/svg" width="30" height="30" viewBox="0 0 30 30" fill="none">
                                <path d="M21.5406 0H8.46218C4.02082 0 0.407471 3.61352 0.407471 8.05488V21.1333C0.407471 25.5748 4.02082 29.1882 8.46218 29.1882H21.5406C25.9823 29.1882 29.5957 25.5747 29.5957 21.1333V8.05488C29.5958 3.61352 25.9823 0 21.5406 0ZM27.0061 21.1333C27.0061 24.1469 24.5543 26.5985 21.5408 26.5985H8.46218C5.44879 26.5986 2.99719 24.1469 2.99719 21.1333V8.05488C2.99719 5.04149 5.44879 2.58972 8.46218 2.58972H21.5406C24.5542 2.58972 27.0059 5.04149 27.0059 8.05488V21.1333H27.0061Z" fill="#C1C1C1"></path>
                                <path d="M15.0001 7.073C10.8529 7.073 7.479 10.4469 7.479 14.5941C7.479 18.7411 10.8529 22.1148 15.0001 22.1148C19.1472 22.1148 22.5211 18.7411 22.5211 14.5941C22.5211 10.4469 19.1472 7.073 15.0001 7.073ZM15.0001 19.5249C12.281 19.5249 10.0687 17.3129 10.0687 14.5939C10.0687 11.8747 12.2809 9.66254 15.0001 9.66254C17.7193 9.66254 19.9314 11.8747 19.9314 14.5939C19.9314 17.3129 17.7191 19.5249 15.0001 19.5249Z" fill="#C1C1C1"></path>
                                <path d="M22.8374 4.87842C22.3384 4.87842 21.8483 5.08042 21.4959 5.43434C21.1418 5.78655 20.9382 6.27686 20.9382 6.77754C20.9382 7.27667 21.142 7.76681 21.4959 8.12074C21.8481 8.47294 22.3384 8.67667 22.8374 8.67667C23.338 8.67667 23.8266 8.47294 24.1805 8.12074C24.5345 7.76681 24.7365 7.2765 24.7365 6.77754C24.7365 6.27686 24.5345 5.78655 24.1805 5.43434C23.8283 5.08042 23.338 4.87842 22.8374 4.87842Z" fill="#C1C1C1"></path>
                            </svg>