<svg width="27" height="31" viewBox="0 0 413 474" fill="none" xmlns="http://www.w3.org/2000/svg">
<path d="M104.389 100.186C108.36 99.0063 110.622 94.8318 109.443 90.8603C108.264 86.8887 104.09 84.6264 100.117 85.8056C86.5452 89.8371 74.4737 97.1741 65.2075 107.021C39.4101 134.437 44.0017 171.331 45.1848 178.448C45.7949 182.118 48.9733 184.72 52.5748 184.72C57.1434 184.72 60.7369 180.524 59.9838 175.988C59.0046 170.095 55.1811 139.568 76.1329 117.302C85.5471 107.297 96.6946 102.472 104.389 100.186ZM309.138 -0.390669C304.995 -0.6247 301.44 2.48771 301.179 6.62225C300.918 10.7568 304.056 14.3203 308.191 14.5823C358.683 17.7757 398.235 59.9402 398.235 110.572C398.235 164.619 354.029 206.755 302.052 206.755C249.017 206.755 205.87 163.608 205.87 110.572C205.87 67.8743 234.548 29.8403 275.612 18.0827C279.594 16.9426 281.898 12.7901 280.758 8.80753C279.618 4.82601 275.465 2.51671 271.482 3.66086C230.5 18.0827 219 35.4485 200.576 72.3738C192.027 84.8175 181.427 74.9752 171.199 70.8876C163.578 67.8362 157.271 63.3176 150.594 58.533C139.62 50.672 128.274 42.5429 111.128 41.2858C90.6078 39.7926 67.4727 46.5855 47.6571 59.9272C21.1757 77.7555 3.98743 110.228 0.499974 149.017C-1.09623 166.714 0.135929 183.514 4.16346 198.948C7.01983 209.911 11.9825 220.069 16.7811 229.892C21.1727 238.881 25.3192 247.372 27.9556 256.372C33.1983 274.275 32.5342 292.058 31.8301 310.882C31.571 317.821 31.303 324.997 31.344 332.236C31.569 373.586 31.8491 425.047 64.8244 454.779C77.9741 466.635 98.9269 479.049 116.046 471C128.687 465.057 130.663 451.782 133.399 433.411C134.818 423.888 136.583 412.033 140.129 398.046C140.944 394.83 141.763 391.319 142.631 387.602C143.822 382.497 145.625 375.218 138.253 373.482C131.031 371.781 129.265 378.862 128.021 384.194C127.17 387.84 126.366 391.284 125.586 394.361C121.855 409.079 120.028 421.345 118.56 431.203C116.113 447.636 114.814 455.003 109.665 457.424C101.329 461.338 85.5171 453.247 74.8717 443.64C46.814 418.343 46.555 370.554 46.346 332.153C46.306 325.237 46.569 318.225 46.822 311.444C47.5391 292.25 48.2812 272.402 42.3535 252.157C39.3581 241.933 34.7335 232.466 30.2609 223.31C25.5803 213.727 21.1587 204.677 18.6794 195.164C15.0909 181.408 14.0007 166.336 15.4419 150.364C18.5233 116.093 33.3193 87.6668 56.0362 72.3738C73.1205 60.8723 92.8001 54.9956 110.036 56.2497C122.969 57.1978 131.722 63.4697 141.858 70.7306C148.967 75.8233 156.318 81.089 165.629 84.8175C178.5 90.8603 178.58 91.2105 188 98.4485C189.107 103.21 191.827 107.021 192.027 114C193.742 173.82 241.827 221.756 302.054 221.756C310.289 221.756 317.5 227 337 230.609C345 225 295 213.5 325.5 230C338.5 250.5 323.505 283.051 323.892 314.51C323.962 320.233 324.036 326.151 324.003 332.191C323.784 370.578 323.512 418.351 295.466 443.641C284.822 453.247 269.009 461.339 260.677 457.424C255.525 455.002 254.226 447.635 251.779 431.201C250.312 421.344 248.484 409.078 244.754 394.362C238.449 369.491 228.185 321.463 201.319 307.357C192.348 302.646 182.595 302.239 172.33 306.14C158.343 311.454 147.573 324.05 139.407 344.644C137.881 348.496 139.764 352.856 143.616 354.382C147.467 355.912 151.827 354.026 153.354 350.174C159.88 333.715 167.831 323.899 177.661 320.163C183.82 317.822 189.278 317.976 194.347 320.639C214.661 331.308 224.83 376.813 230.213 398.045C233.758 412.032 235.524 423.886 236.942 433.409C239.678 451.781 241.655 465.056 254.297 471C271.637 479.153 292.473 466.54 305.515 454.78C338.477 425.058 338.77 373.612 339.006 332.235C339.039 326.098 338.965 320.113 338.894 314.326C338.516 283.628 344.5 263.109 341.754 230.609C341.754 217 353 206.755 341.754 214.422C383.514 198.405 413.241 157.897 413.241 110.57C413.237 52.0422 367.511 3.30281 309.138 -0.390669ZM56.9634 198.197C52.8338 198.518 49.7454 202.128 50.0665 206.257C50.4035 210.594 51.0956 214.931 52.1217 219.149C52.9558 222.579 56.0242 224.879 59.4037 224.879C64.1613 224.879 67.8328 220.265 66.6976 215.603C65.8615 212.165 65.2985 208.631 65.0234 205.096C64.7014 200.964 61.0849 197.866 56.9634 198.197Z" fill="#4A89C8"/>
<path d="M270.8 107.45C263.8 107.45 258.05 106.3 253.55 104C249.05 101.6 245.75 98.45 243.65 94.55C241.55 90.55 240.5 86.1 240.5 81.2C240.5 76.3 241.55 71.9 243.65 68C245.75 64 249.05 60.85 253.55 58.55C258.05 56.15 263.8 54.95 270.8 54.95C277.7 54.95 283.4 56.15 287.9 58.55C292.4 60.85 295.7 64 297.8 68C300 71.9 301.1 76.3 301.1 81.2C301.1 86.1 300 90.55 297.8 94.55C295.7 98.45 292.4 101.6 287.9 104C283.4 106.3 277.7 107.45 270.8 107.45ZM251.3 164V155L302.15 101.45L330.2 57.95H357.8V66.95L310.1 116.3L276.2 163.55L251.3 164ZM270.8 87.95C273.7 87.95 275.5 87.15 276.2 85.55C277 83.95 277.4 82.5 277.4 81.2C277.4 79.9 277 78.45 276.2 76.85C275.5 75.25 273.7 74.45 270.8 74.45C267.8 74.45 265.95 75.25 265.25 76.85C264.55 78.45 264.2 79.9 264.2 81.2C264.2 82.5 264.55 83.95 265.25 85.55C265.95 87.15 267.8 87.95 270.8 87.95ZM336.8 167C329.8 167 324.05 165.85 319.55 163.55C315.05 161.15 311.75 157.95 309.65 153.95C307.55 149.95 306.5 145.55 306.5 140.75C306.5 135.85 307.55 131.45 309.65 127.55C311.75 123.55 315.05 120.4 319.55 118.1C324.05 115.7 329.8 114.5 336.8 114.5C343.7 114.5 349.4 115.7 353.9 118.1C358.4 120.4 361.7 123.55 363.8 127.55C366 131.45 367.1 135.85 367.1 140.75C367.1 145.55 366 149.95 363.8 153.95C361.7 157.95 358.4 161.15 353.9 163.55C349.4 165.85 343.7 167 336.8 167ZM336.8 147.5C339.7 147.5 341.5 146.7 342.2 145.1C343 143.5 343.4 142.05 343.4 140.75C343.4 139.45 343 138 342.2 136.4C341.5 134.8 339.7 134 336.8 134C333.8 134 331.95 134.8 331.25 136.4C330.55 138 330.2 139.45 330.2 140.75C330.2 142.05 330.55 143.5 331.25 145.1C331.95 146.7 333.8 147.5 336.8 147.5Z" fill="#4A89C8"/>
</svg>
