<svg width="21" height="20" viewBox="0 0 21 20" fill="none" xmlns="http://www.w3.org/2000/svg">
<path d="M20.8539 14.9736V17.9847C20.8585 19.093 19.9619 19.9954 18.8506 20C18.7877 20 18.7241 19.9977 18.6612 19.9916C15.5666 19.6563 12.5947 18.6008 9.98328 16.9108C7.55363 15.3701 5.49363 13.3142 3.94978 10.8894C2.25025 8.27101 1.19264 5.28978 0.862859 2.18838C0.76239 1.08391 1.57841 0.108021 2.6851 0.00851868C2.74416 0.00316088 2.80398 9.93411e-05 2.8638 9.93411e-05H5.88093C6.89022 -0.00985086 7.75073 0.72876 7.89185 1.72608C8.01916 2.68971 8.25537 3.63575 8.59589 4.54581C8.87199 5.27906 8.6956 6.10646 8.1434 6.66367L6.86645 7.93806C8.29832 10.4509 10.3821 12.5312 12.9 13.9595L14.1769 12.6851C14.7352 12.134 15.5635 11.9579 16.299 12.2335C17.2117 12.5733 18.1596 12.8091 19.1244 12.9361C20.1352 13.0785 20.8792 13.9549 20.8539 14.9736Z" fill="#4A89C8"/>
</svg>