<?xml version="1.0" encoding="UTF-8"?>
<!DOCTYPE svg PUBLIC "-//W3C//DTD SVG 1.1//EN" "http://www.w3.org/Graphics/SVG/1.1/DTD/svg11.dtd">
<!-- Creator: CorelDRAW 2018 (64-Bit) -->
<svg xmlns="http://www.w3.org/2000/svg" xml:space="preserve" width="12mm" height="12mm" version="1.1" style="shape-rendering:geometricPrecision; text-rendering:geometricPrecision; image-rendering:optimizeQuality; fill-rule:evenodd; clip-rule:evenodd"
viewBox="0 0 1200 1200"
 xmlns:xlink="http://www.w3.org/1999/xlink">
 <defs>
  <style type="text/css">
   <![CDATA[
    .fil0 {fill:#D9DADA}
   ]]>
  </style>
 </defs>
 <g id="Слой_x0020_1">
  <metadata id="CorelCorpID_0Corel-Layer"/>
  <path class="fil0" d="M461.08 919.29c-0.42,-0.49 -0.4,-0.34 -0.9,-1.18 -2.26,-3.79 -3.1,-9.25 -4.34,-13.68 -0.97,-3.47 -1.61,-4.7 -2.54,-7.86l-65.01 -213.03c-0.88,-2.88 -1.47,-4.82 -2.38,-8.02 -0.86,-3.01 -1.82,-5.07 -2.48,-7.92 4.3,-1 9.25,-5.39 13.04,-7.76l47.31 -30.34c20.7,-12.36 40.29,-26.55 60.95,-38.89l34.71 -22.15c5.7,-3.78 11.56,-7.24 17.22,-11.2l8.46 -5.41c2.99,-1.79 6.15,-3.69 8.99,-5.58 2.8,-1.86 5.49,-3.51 8.45,-5.41l30.51 -19.41c8.32,-5.24 28.05,-17.31 34.62,-22.23l55.84 -35.68c3.21,-1.89 5.84,-3.56 8.96,-5.61 1.69,-1.11 2.72,-1.57 4.31,-2.62l47.69 -30.66c5.99,-3.94 11.51,-7.12 17.48,-10.95l34.67 -22.19c2.97,-1.87 5.71,-3.72 8.49,-5.38 23.61,-14.1 46.12,-29.89 69.71,-43.99 9.03,-5.41 17.24,-11.51 26.4,-16.59 2.27,-1.26 2.04,-1.53 4.17,-2.77 4.13,-2.4 10.2,-7.4 14.78,-7.4 7.56,0 14,4.61 11.89,11.83 -0.92,3.14 -10.25,11.31 -12.99,13.42l-40.4 37.26c-2.14,1.71 -2.81,2.22 -4.78,4.23l-13.54 12.12c-1.7,1.63 -2.76,3.01 -4.56,4.45 -3.56,2.83 -5.66,5.27 -9.22,8.11 -1.68,1.34 -2.61,2.59 -4.26,4.06l-1.5 1.28c-8.16,6.83 -15.45,14.58 -23.64,21.42l-13.42 12.24c-0.11,0.09 -0.27,0.22 -0.38,0.31 -0.03,0.03 -0.72,0.6 -0.76,0.63l-42.11 38.31c-0.6,0.54 -0.63,0.55 -1.12,0.96l-26.25 23.68c-7.43,7.61 -19.66,17.15 -27.39,24.6 -1.7,1.64 -2.77,3.02 -4.57,4.45 -3.55,2.84 -5.66,5.28 -9.22,8.12l-13.47 12.18c-1.99,1.54 -2.83,2.72 -4.65,4.36l-3.29 2.95c-0.1,0.1 -0.26,0.24 -0.36,0.33l-100.69 90.68c-1.68,1.67 -2.66,2.9 -4.61,4.4 -2.1,1.62 -2.6,2.11 -4.39,3.94l-15.95 14.55c-0.55,0.5 -0.49,0.44 -1.11,0.97l-28.47 25.61c-8.68,6.71 -31.56,29.03 -42.26,38.18l-3.37 2.86c-15.32,14.21 -12.39,8.37 -14.1,20.57 -2.65,18.93 -2.77,36.75 -5.37,55.65 -1.36,9.95 -1.35,21.62 -2.83,31.83 -1.95,13.4 -2.28,27.75 -3.93,39.06 -1.12,7.67 -2.04,16.01 -2.04,24.31zm-418.78 -345.29c0,13.09 2.44,22.19 11.95,31.04 2.71,2.52 7.31,5.42 11.24,6.78 2.59,0.9 4.35,1.19 7.03,1.99l246.39 76.71c4.98,1.49 4.49,6.3 6.53,12.19 0.95,2.74 1.4,3.77 2.28,6.74l20.86 63.03c0.78,2.3 1.5,4.72 2.26,6.76 7.64,20.65 13.91,42.11 20.88,63.01 4.56,13.69 8.47,27.58 13.58,41.19 5.15,13.71 8.76,28.01 13.78,41.69 0.87,2.38 1.57,4.88 2.2,6.81l16.29 48.89c5.85,17.72 9.68,36.73 30.72,42.77 19.57,5.62 33.72,0.14 46.95,-12.6 6.86,-6.6 14.2,-14.18 21.38,-20.23l20.67 -19.54c0.11,-0.1 0.26,-0.23 0.37,-0.32l2.63 -2.23c6.49,-5.97 12.43,-12.56 19.18,-18.25l37.57 -35.24c0.1,-0.1 0.25,-0.24 0.35,-0.34l20.08 -18.75c0.11,-0.1 0.27,-0.23 0.38,-0.32 0.64,-0.55 0.79,-0.65 1.48,-1.29 1.81,-1.66 3.12,-3.09 4.86,-4.85l3.99 -3.63c0.11,-0.09 0.27,-0.22 0.38,-0.31l5.17 -5.24c13.28,8.89 25.35,18.99 38.55,28.01l30.78 22.61c14.36,10.27 28.26,21.39 42.85,31.33l117.22 85.94c1.59,1.2 2.7,2.08 4.39,3.23 3.17,2.16 5.83,4.23 8.88,6.38 2.86,2.03 5.56,4.13 8.31,6.25 3.02,2.31 5.58,4.25 8.98,6.27 13.44,7.98 18.66,8.27 33.44,8.28l1.88 0 0.78 0c8.68,0 20.12,-4.79 25.37,-8.61 10.94,-7.95 15.93,-19.5 19.63,-32.36l2.97 -14.37c1.13,-4.48 1.92,-9.19 2.94,-14.39l27.14 -128.87c3.52,-17.62 7.75,-39.43 12.1,-57.23l5.83 -28.84c0.93,-4.77 2.29,-9.66 3.08,-14.25l4.48 -21.18c3.54,-12.92 7.09,-36.91 10.59,-50.42 1.25,-4.86 1.86,-9.95 2.89,-14.44l4.61 -21.05c0.19,-1.01 0.36,-2.48 0.59,-3.57l5.26 -25.25c0.64,-2.38 1,-4.23 1.53,-6.78 0.55,-2.63 0.94,-3.88 1.36,-6.96 1.41,-10.15 9.4,-43.58 12.05,-57.29l7.62 -36.07c4.63,-17.91 7.98,-38.97 11.93,-57.4l24.04 -114.63c0.18,-0.95 0.56,-1.91 0.88,-3.28 0.29,-1.26 0.36,-2.26 0.61,-3.55l22.63 -107.71c0.94,-4.54 2.2,-9.48 3.13,-14.22 1.02,-5.2 1.8,-9.91 2.93,-14.39l4.38 -21.28c2.6,-15.06 1.77,-23.71 -9.95,-35.29 -6.23,-6.15 -15.59,-11.25 -25.5,-11.25 -5.14,0 -12.73,3.76 -17.41,5.47 -22.65,8.28 -45.67,16.03 -68.07,24.84l-102.21 37.84c-22.63,8.87 -45.76,16.23 -68.25,25.36 -16.9,6.86 -33.98,12.54 -51.11,18.92l-93.4 34.87c-25.19,9.91 -51.09,18.67 -76.38,28.31l-229.26 85.52c-14.5,5.2 -27.87,10.96 -42.4,15.85l-42.33 15.91c-1.44,0.55 -2.49,1.04 -3.95,1.59 -23.95,9.13 -48.41,17.26 -72.2,26.95 -1.6,0.64 -2.52,0.84 -4.15,1.4l-17.06 6.51c-1.32,0.49 -2.82,0.88 -4.14,1.41 -25.13,10.23 -51.54,18.47 -76.69,28.7 -2.99,1.22 -5.62,2.19 -8.53,3.25l-25.73 9.64c-10.71,4.26 -42.12,14.43 -50.5,19.53 -3.56,2.17 -7.14,4.35 -9.84,7.49 -4.93,5.75 -9,12.65 -9,20.81z"/>
 </g>
</svg>