<svg width="410" height="461" viewBox="0 0 410 461" fill="none" xmlns="http://www.w3.org/2000/svg">
<path d="M287.981 8.713C272.639 8.713 257.459 11.827 243.355 17.869C218.866 28.373 191.134 28.373 166.645 17.869C152.54 11.828 137.361 8.713 122.019 8.713C59.465 8.713 8.75501 59.415 8.74701 121.968C8.74701 121.977 8.74701 121.977 8.74701 121.985C8.74701 170.639 22.416 218.32 48.203 259.576L51.411 264.696L88.571 428.201C91.788 442.365 104.382 452.417 118.913 452.417C134.135 452.426 147.131 441.427 149.631 426.418L175.229 272.879C177.652 258.322 190.238 247.648 205 247.631C219.77 247.631 232.373 258.305 234.805 272.879L260.403 426.418C262.903 441.419 275.881 452.409 291.087 452.417C305.618 452.417 318.213 442.365 321.429 428.201L358.589 264.696L361.797 259.576C387.583 218.32 401.253 170.639 401.253 121.985C401.262 59.431 350.551 8.721 287.998 8.713C287.99 8.713 287.99 8.713 287.981 8.713Z" fill="white"/>
<path d="M316.95 12.596C266.701 183.379 130.765 260.601 57.332 290.756L88.57 428.193C92.384 444.951 109.066 455.438 125.824 451.624C138.128 448.825 147.523 438.868 149.605 426.418L175.203 272.879C177.942 256.419 193.506 245.293 209.965 248.032C222.704 250.148 232.696 260.14 234.812 272.879L260.41 426.418C263.243 443.373 279.285 454.815 296.239 451.974C308.688 449.892 318.646 440.497 321.445 428.193L358.588 264.697L361.796 259.577C387.582 218.321 401.252 170.64 401.252 121.986C401.22 70.627 366.611 25.719 316.95 12.596Z" fill="#F5F5F5"/>
<path d="M59.943 119.639H42.878C42.878 73.605 75.303 54.969 92.368 51.548L95.713 68.272L94.075 59.91L95.782 68.264C94.33 68.579 59.943 76.37 59.943 119.639Z" fill="#F7F7F7"/>
<path d="M128.189 51.377H111.123V68.443H128.189V51.377Z" fill="#F7F7F7"/>
<path d="M40.966 264.082L43.406 267.999L80.25 430.122C85.097 451.471 106.335 464.85 127.684 460.012C143.393 456.445 155.381 443.731 158.018 427.843L183.616 274.304C185.596 262.486 196.782 254.517 208.591 256.496C217.713 258.023 224.863 265.174 226.399 274.304L251.997 427.834C255.598 449.439 276.034 464.021 297.63 460.421C313.501 457.776 326.206 445.796 329.773 430.104L366.609 267.981L369.049 264.064C395.688 221.46 409.801 172.226 409.784 121.985C409.793 54.713 355.26 0.180001 287.987 0.171001C271.485 0.171001 255.153 3.524 239.982 10.026C217.635 19.549 192.361 19.549 170.013 10.026C108.187 -16.484 36.58 12.152 10.069 73.98C3.567 89.151 0.214005 105.483 0.214005 121.985C0.197005 172.244 14.318 221.478 40.966 264.082ZM122.019 17.246C136.209 17.229 150.245 20.113 163.283 25.711C189.931 37.085 220.069 37.085 246.716 25.711C299.892 2.929 361.465 27.563 384.256 80.739C389.845 93.777 392.721 107.805 392.721 121.986C392.73 169.044 379.512 215.147 354.562 255.046L351.354 260.166C350.851 260.977 350.484 261.864 350.262 262.794L313.119 426.299C310.354 438.467 298.255 446.078 286.087 443.313C277.153 441.282 270.327 434.046 268.817 425.01L243.219 271.48C239.695 250.37 219.728 236.12 198.618 239.644C182.295 242.366 169.504 255.157 166.782 271.48L141.184 425.019C139.145 437.323 127.523 445.643 115.219 443.603C106.166 442.101 98.921 435.266 96.891 426.316L59.739 262.803C59.517 261.873 59.15 260.986 58.647 260.175L55.439 255.055C30.489 215.156 17.272 169.045 17.28 121.987C17.348 64.168 64.201 17.314 122.019 17.246Z" fill="black"/>
<path d="M59.943 119.639C59.943 76.369 94.33 68.579 95.781 68.263L94.074 59.909L92.367 51.547C75.301 54.969 42.877 73.604 42.877 119.638H59.943V119.639Z" fill="black"/>
<path d="M128.189 51.377H111.123V68.443H128.189V51.377Z" fill="black"/>
</svg>
