<?xml version="1.0"?>
<svg xmlns="http://www.w3.org/2000/svg" xmlns:xlink="http://www.w3.org/1999/xlink" xmlns:svgjs="http://svgjs.com/svgjs" version="1.1" width="512" height="512" x="0" y="0" viewBox="0 0 496 496" style="enable-background:new 0 0 512 512" xml:space="preserve" class=""><g>
<g xmlns="http://www.w3.org/2000/svg">
	<g>
		<path d="M488,208.106h-51.328c1.808-5.256,3.464-10.608,4.944-16H488c4.424,0,8-3.584,8-8s-3.576-8-8-8h-42.56    c2.712-13.232,4.224-26.256,4.224-38.08c0-63.16-17.84-103.024-54.144-121.656c-15.24-9-45.024-8.616-66.848-8.36    c-3.24,0.04-6.256,0.08-8.944,0.08c-24.816,0-45.016,6.072-63.392,18.984c-2.048,1.344-4.008,2.808-6.4,4.608l-0.992,0.736    c-0.304,0.24-0.624,0.488-0.936,0.736c-2.736-2.2-5.456-4.176-8.152-5.952c-18.576-13.04-38.776-19.12-63.584-19.12    c-2.688,0-5.704-0.04-8.944-0.08c-21.8-0.288-51.608-0.648-66.44,8.136C64.176,34.994,46.336,74.866,46.336,138.026    c0,11.824,1.512,24.848,4.224,38.08H8c-4.416,0-8,3.584-8,8s3.584,8,8,8h46.392c1.472,5.392,3.128,10.744,4.944,16H8    c-4.416,0-8,3.584-8,8s3.584,8,8,8h57.48c5.056,11.896,10.864,22.832,17.168,31.864c4.04,22.056,8.152,43.808,12.064,64.136H32    c-13.232,0-24,10.768-24,24v136c0,4.416,3.584,8,8,8h464c4.424,0,8-3.584,8-8v-136c0-13.232-10.768-24-24-24h-62.712    c3.92-20.368,8.032-42.128,12.064-64.136c6.304-9.032,12.12-19.968,17.168-31.864H488c4.424,0,8-3.584,8-8    S492.424,208.106,488,208.106z M76.248,208.106c-1.936-5.224-3.712-10.576-5.296-16H104v16H76.248z M464,336.106    c4.416,0,8,3.592,8,8v128H24v-128c0-4.408,3.592-8,8-8h65.64l1.08,4.696c5.64,28.944,10.6,53.664,13.904,69.944    c1.848,9.12,7.024,16.864,14.168,22.104c5.56,4.56,12.64,7.256,20.304,7.256h0.488c0.44,0,0.768,0,1,0h33.928h5.824    c15.2,0,28.392-10.816,31.376-25.72l10.672-53.368l8.696-36.176c2.224-2.84,5.568-4.736,9.36-4.736    c3.144,0,5.968,1.304,8.144,3.344l21.816,90.648c3.608,11.848,13.192,21.088,24.904,24.416c0.04,0.016,0.08,0.024,0.112,0.04    c0.376,0.104,0.728,0.256,1.112,0.352c2.864,0.8,5.496,1.2,8.024,1.2c0.184,0,0.376,0,0.504,0c0.024,0,0.04,0,0.072,0    c0.056,0,0.112,0,0.168,0h0.192h33.928c0.464,0.008,0.768,0,1,0h0.488c7.736,0,14.856-2.752,20.44-7.392    c7.12-5.256,12.2-12.944,14.032-21.968c3.304-16.312,8.264-41.008,13.888-69.856l1.104-4.784H464z M399.312,248.106    c-0.696,0.968-1.168,2.072-1.376,3.24c-5.512,30.104-11.184,59.84-16.312,86.144l-17.12,74.216    c-0.664,2.856-2.064,5.36-3.952,7.368c-2.344,1.928-5.032,3.512-8.208,4.352c-1.528,0.464-2.776,0.68-3.912,0.68    c-0.384-0.016-0.768-0.016-1.008,0H313.6c-0.176-0.008-0.328-0.024-0.496-0.032c-1.648-0.024-3.248-0.264-4.752-0.744    c-0.024-0.008-0.048-0.024-0.072-0.024c-4.696-1.528-8.48-5.104-9.992-9.592l-22.672-88.512c-1.056-4.12-3.056-7.776-5.64-10.888    c-4.904-8.712-13.872-13.968-23.792-13.416c-9.944,0.512-18.312,6.848-21.704,16.712c-1.664,2.728-2.888,5.784-3.544,9.056    l-6.272,31.36l-12.36,51.424c-2.096,6.888-7.808,12.248-15.184,14.064c-1.456,0.4-2.624,0.592-3.672,0.592h-0.352    c-0.072,0-0.152,0-0.224,0c-0.144,0-0.264,0-0.36,0h-33.808c-0.256-0.016-0.504-0.048-0.728-0.048    c-0.224-0.016-0.448,0.008-0.712,0.04c-1.064-0.032-2.24-0.264-3.912-0.768c-2.904-0.76-5.408-2.24-7.64-4.016    c-2.016-2.048-3.52-4.632-4.208-7.616l-17.136-74.256c-5.112-26.232-10.776-55.928-16.296-86.104    c-0.216-1.168-0.688-2.272-1.384-3.24c-4.96-6.88-9.608-15.056-13.784-24h22.232c3.576,13.76,16,24,30.864,24h16h32h16    c14.864,0,27.288-10.24,30.864-24h34.272c3.576,13.76,15.992,24,30.864,24h16h32h16c14.872,0,27.288-10.24,30.864-24h22.232    C408.92,233.05,404.272,241.226,399.312,248.106z M120,216.106v-32c0-8.824,7.176-16,16-16h8v64h-8    C127.176,232.106,120,224.93,120,216.106z M176,208.106v24h-16v-24H176z M160,192.106v-24h16v24H160z M192,232.106v-64h8    c8.824,0,16,7.176,16,16v32c0,8.824-7.176,16-16,16H192z M232,208.106v-16h32v16H232z M280,216.106v-32c0-8.824,7.176-16,16-16h8    v64h-8C287.176,232.106,280,224.93,280,216.106z M336,208.106v24h-16v-24H336z M320,192.106v-24h16v24H320z M352,232.106v-64h8    c8.824,0,16,7.176,16,16v32c0,8.824-7.176,16-16,16H352z M419.752,208.106H392v-16h33.048    C423.464,197.53,421.688,202.882,419.752,208.106z M429.136,176.106h-38.272c-3.576-13.76-15.992-24-30.864-24h-16h-32h-16    c-14.872,0-27.288,10.24-30.864,24h-34.272c-3.576-13.76-16-24-30.864-24h-16h-32h-16c-14.864,0-27.288,10.24-30.864,24H66.864    c-2.88-13.208-4.528-26.288-4.528-38.08c0-57.368,14.576-91.576,46.272-107.872c11.392-6.728,40.896-6.36,58.52-6.144    c3.312,0.04,6.392,0.08,9.144,0.08c21.36,0,38.64,5.152,54.592,16.352c2.248,1.472,4.456,3.112,6.664,4.872    c-18.184,20-29.528,46.32-29.528,74.792c0,4.416,3.584,8,8,8s8-3.584,8-8c0-46.368,38.472-96.016,95.728-96.016    c2.752,0,5.832-0.04,9.152-0.08c17.624-0.24,47.128-0.584,58.92,6.368c31.288,16.072,45.864,50.28,45.864,107.648    C433.664,149.818,432.016,162.898,429.136,176.106z" fill="#81b5ff" data-original="#000000" style=""/>
	</g>
</g>
<g xmlns="http://www.w3.org/2000/svg">
</g>
<g xmlns="http://www.w3.org/2000/svg">
</g>
<g xmlns="http://www.w3.org/2000/svg">
</g>
<g xmlns="http://www.w3.org/2000/svg">
</g>
<g xmlns="http://www.w3.org/2000/svg">
</g>
<g xmlns="http://www.w3.org/2000/svg">
</g>
<g xmlns="http://www.w3.org/2000/svg">
</g>
<g xmlns="http://www.w3.org/2000/svg">
</g>
<g xmlns="http://www.w3.org/2000/svg">
</g>
<g xmlns="http://www.w3.org/2000/svg">
</g>
<g xmlns="http://www.w3.org/2000/svg">
</g>
<g xmlns="http://www.w3.org/2000/svg">
</g>
<g xmlns="http://www.w3.org/2000/svg">
</g>
<g xmlns="http://www.w3.org/2000/svg">
</g>
<g xmlns="http://www.w3.org/2000/svg">
</g>
</g></svg>
