<?xml version="1.0"?>
<svg xmlns="http://www.w3.org/2000/svg" xmlns:xlink="http://www.w3.org/1999/xlink" xmlns:svgjs="http://svgjs.com/svgjs" version="1.1" width="512" height="512" x="0" y="0" viewBox="0 0 512.13713 512" style="enable-background:new 0 0 512 512" xml:space="preserve" class=""><g><path xmlns="http://www.w3.org/2000/svg" d="m458.707031 350.464844c3.484375-2.84375 6.203125-6.515625 7.910157-10.675782 2.992187-6.949218 3.03125-14.8125.101562-21.785156l-7.925781-19.132812c49.96875-49.351563 50.53125-129.847656 1.253906-179.890625-1.859375-31.191407-15.179687-60.59375-37.402344-82.5625-49.355469-47.351563-137.234375-48.324219-192.144531-3.601563-54.921875-44.722656-142.773438-43.75-192.101562 3.59375-50.246094 48.15625-44.117188 126.738282-21.582032 184.21875 6.699219 15.820313 14.742188 31.039063 24.046875 45.480469 4.734375 7.828125 9.632813 15.917969 13.996094 24.109375 12.925781 22.914062 21.347656 48.089844 24.820313 74.171875 2.621093 29.667969 7.613281 59.078125 14.925781 87.953125 5.625 20.90625 16.113281 59.816406 49.535156 59.816406 26.214844 0 46.492187-50.074218 60.246094-148.820312 4.6875-33.082032 19.117187-35.984375 26.113281-36.8125 6.996094.851562 21.425781 3.730468 26.113281 36.796875 13.753907 98.761719 34.027344 148.835937 60.242188 148.835937 33.425781 0 43.914062-38.910156 49.496093-59.730468 7.320313-28.890626 12.3125-58.320313 14.933594-88.007813.101563-.902344.339844-1.796875.460938-2.695313 5.390625 6.738282 13.554687 10.667969 22.183594 10.675782.792968 0 1.589843-.171875 2.382812-.230469l51.445312 124.195313c2.589844 6.28125 7.574219 11.273437 13.847657 13.875 6.277343 2.597656 13.332031 2.59375 19.605469-.019532l5.117187-2.105468c6.277344-2.597657 11.261719-7.582032 13.859375-13.855469 2.597656-6.273438 2.597656-13.324219 0-19.597657zm12.433594-99.976563c-20.152344 48.667969-71.882813 76.324219-123.546875 66.050781-51.667969-10.273437-88.878906-55.613281-88.878906-108.292968 0-52.675782 37.210937-98.019532 88.878906-108.292969 51.664062-10.273437 103.394531 17.382813 123.546875 66.054687 11.28125 27.027344 11.28125 57.449219 0 84.480469zm-106.777344 111.972657c-2.570312 28.8125-7.382812 57.378906-14.398437 85.445312-6.203125 22.835938-14.335938 47.1875-33.109375 47.1875-8.53125 0-28.558594-28.03125-43.347657-134.144531-4.464843-31.570313-18.59375-48.886719-41.984374-51.480469-.335938.003906-.675782.03125-1.007813.085938-.34375-.058594-.691406-.085938-1.039063-.085938-23.390624 2.558594-37.546874 19.917969-41.984374 51.5-14.789063 106.09375-34.824219 134.125-43.351563 134.125-18.773437 0-26.902344-24.351562-33.082031-47.257812-7.019532-28.023438-11.839844-56.554688-14.421875-85.332032-3.691407-28.234375-12.761719-55.496094-26.71875-80.316406-4.574219-8.601562-9.597657-16.894531-14.503907-24.917969-8.796874-13.613281-16.410156-27.960937-22.75-42.878906-20.472656-52.328125-26.652343-123.332031 17.550782-165.667969 44.203125-42.332031 127.316406-41.667968 174.53125 1.425782.355468.261718.734375.492187 1.128906.683593.453125.332031.9375.617188 1.449219.851563.503906.179687 1.023437.304687 1.554687.378906.527344.140625 1.074219.226562 1.621094.253906.515625-.027344 1.027344-.101562 1.527344-.222656.5625-.074219 1.113281-.207031 1.648437-.398438.5-.238281.976563-.527343 1.421875-.855468.398438-.199219.777344-.429688 1.136719-.691406 47.230469-43.109376 130.421875-43.792969 174.566406-1.40625 14.984375 14.582031 25.230469 33.332031 29.414063 53.820312-45.359375-30.515625-105.125-28.699219-148.550782 4.507812-43.421874 33.210938-60.828124 90.414063-43.257812 142.183594 17.566406 51.765625 66.195312 86.5625 120.863281 86.480469h.238281c-2.359374 8.773437-4.078124 17.707031-5.144531 26.726563zm29.121094-14.140626-5.722656-13.816406.09375-.339844c20.800781-2.921874 40.515625-11.09375 57.28125-23.746093l5.839843 14.085937c1.167969 2.800782 1.132813 5.957032-.105468 8.730469-1.089844 2.734375-3.246094 4.910156-5.972656 6.023437l-36.632813 15.171876c-5.769531 2.371093-12.367187-.355469-14.78125-6.109376zm100.890625 139.394532c-.855469 2.09375-2.519531 3.757812-4.617188 4.613281l-5.117187 2.109375c-4.355469 1.800781-9.339844-.265625-11.144531-4.617188l-50.894532-122.878906 20.863282-8.644531 50.886718 122.878906c.878907 2.089844.890626 4.441407.023438 6.539063zm0 0" fill="#81b5ff" data-original="#000000" style=""/><path xmlns="http://www.w3.org/2000/svg" d="m390.132812 130.660156c-3.332031-3.328125-8.734374-3.328125-12.066406 0l-28.101562 28.101563c-.730469.742187-1.386719 1.550781-1.96875 2.414062l-20.933594-6.980469c-2.894531-.960937-6.085938-.308593-8.367188 1.71875-2.285156 2.027344-3.3125 5.117188-2.699218 8.105469.613281 2.992188 2.777344 5.425781 5.671875 6.390625l25.398437 8.464844c.761719 1.480469 1.738282 2.839844 2.898438 4.035156l15.214844 15.222656-11.945313 23.894532c-2.914063 5.78125-2.289063 12.714844 1.613281 17.878906l18.773438 25.078125-13.714844 20.574219c-1.691406 2.535156-1.902344 5.78125-.550781 8.515625 1.351562 2.734375 4.058593 4.539062 7.101562 4.738281 3.042969.195312 5.957031-1.246094 7.648438-3.78125l13.714843-20.574219c4.015626-6.023437 3.796876-13.921875-.546874-19.710937l-18.773438-25.082032 11.945312-23.890624c3.289063-6.574219 2-14.511719-3.199218-19.703126l-15.214844-15.242187 28.101562-28.101563c3.332032-3.332031 3.332032-8.734374 0-12.066406zm0 0" fill="#81b5ff" data-original="#000000" style=""/><path xmlns="http://www.w3.org/2000/svg" d="m77.472656 58.605469c-.574218.28125-59.453125 29.644531-36.542968 113.757812 1.242187 4.546875 5.9375 7.230469 10.484374 5.988281 4.546876-1.242187 7.230469-5.9375 5.988282-10.484374-19.054688-69.855469 25.46875-92.886719 27.492187-93.902344 4.101563-2.125 5.769531-7.128906 3.757813-11.289063-2.011719-4.160156-6.96875-5.964843-11.179688-4.070312zm0 0" fill="#81b5ff" data-original="#000000" style=""/><path xmlns="http://www.w3.org/2000/svg" d="m119.566406 51.359375c0 4.714844-3.820312 8.535156-8.535156 8.535156-4.710938 0-8.53125-3.820312-8.53125-8.535156 0-4.710937 3.820312-8.53125 8.53125-8.53125 4.714844 0 8.535156 3.820313 8.535156 8.53125zm0 0" fill="#81b5ff" data-original="#000000" style=""/></g></svg>
