<svg width="118" height="118" viewBox="0 0 118 118" fill="none" xmlns="http://www.w3.org/2000/svg">
<g clip-path="url(#clip0)">
<path d="M49.7812 52.7716C51.0541 52.7716 52.0859 51.7398 52.0859 50.4669C52.0859 49.1941 51.0541 48.1622 49.7812 48.1622C48.5084 48.1622 47.4766 49.1941 47.4766 50.4669C47.4766 51.7398 48.5084 52.7716 49.7812 52.7716Z" fill="#81B5FF"/>
<path d="M68.2188 52.7716C69.4916 52.7716 70.5234 51.7398 70.5234 50.4669C70.5234 49.1941 69.4916 48.1622 68.2188 48.1622C66.9459 48.1622 65.9141 49.1941 65.9141 50.4669C65.9141 51.7398 66.9459 52.7716 68.2188 52.7716Z" fill="#81B5FF"/>
<path d="M79.4942 67.473C78.9922 68.2849 79.2437 69.3501 80.0556 69.8521C80.3389 70.0272 80.6528 70.1107 80.963 70.1107C81.5421 70.1107 82.1079 69.8196 82.435 69.2909C84.1176 66.5688 85.3032 63.5861 85.9542 60.4757C86.9953 60.9452 88.1011 61.189 89.2377 61.189C94.957 61.189 97.9494 54.6315 97.9494 48.1537C97.9494 42.2622 95.5682 38.1126 91.7065 36.8981C92.7708 34.1338 93.3617 30.4304 92.3935 25.3152C94.3539 21.34 94.6611 17.7827 93.3055 14.7341C91.807 11.364 88.6493 9.5716 86.6892 8.74583C86.9372 7.22658 86.8627 4.94702 85.2066 2.50243C84.3774 1.27864 82.3299 -0.30606 74.1577 0.0509366C68.9874 0.277026 62.174 1.23485 54.454 2.82025C53.5188 3.01246 52.9165 3.92604 53.1085 4.86128C53.3005 5.79652 54.215 6.3992 55.1493 6.20676C62.6435 4.66769 69.2367 3.73475 74.2162 3.50889C81.3382 3.18508 82.3361 4.42984 82.3446 4.4416C83.9773 6.85138 83.1317 8.85646 83.0434 9.04982C82.7897 9.51444 82.7777 10.0487 82.9863 10.5361C83.1964 11.027 83.6366 11.3713 84.1534 11.5064C84.1981 11.5181 88.6371 12.714 90.1548 16.1566C91.1114 18.3266 90.7404 21.0526 89.052 24.2589C88.8646 24.6145 88.8072 25.0241 88.8893 25.4175C90.5977 33.6007 87.9125 37.2993 85.9519 39.9995C85.3831 40.7831 84.8918 41.4597 84.5592 42.1751C84.1222 43.1161 83.7763 44.678 83.5302 46.091C82.1372 44.8794 81.0443 43.7503 80.7765 43.2021C80.7876 43.1032 80.7998 42.9967 80.8127 42.8836C81.1416 40.0087 81.8259 34.0269 78.8351 31.352C77.9321 30.5445 76.3057 29.7079 73.6848 30.3083C72.0671 30.6793 70.6624 31.0289 69.4232 31.3375C65.3626 32.3488 62.9115 32.9591 58.7728 32.9591C54.634 32.9591 52.183 32.3488 48.1223 31.3375C46.8831 31.0289 45.4784 30.6793 43.8605 30.3083C41.2403 29.7079 39.6134 30.5443 38.7102 31.352C35.7194 34.0269 36.4039 40.0087 36.7328 42.8836C36.7471 43.0089 36.7605 43.126 36.7724 43.2339C36.5459 43.7722 35.5318 44.9096 34.2297 46.1325C33.8748 44.7139 33.4217 43.1129 32.9856 42.1742C32.8874 41.9633 32.7876 41.7556 32.6874 41.5466C31.9483 40.0092 31.2504 38.557 31.0317 35.0575C31.0271 34.9833 31.0172 34.908 31.0031 34.8349C30.9923 34.7791 29.9383 29.1949 31.1951 23.157C32.8178 15.3612 37.4104 10.4548 44.8451 8.57436C45.6667 8.36671 46.4839 8.16436 47.2963 7.96754C48.2242 7.74283 48.7941 6.80851 48.5692 5.88064C48.3443 4.95301 47.4106 4.38283 46.4823 4.60776C45.6589 4.80735 44.8303 5.01224 43.9972 5.22289C35.2712 7.43009 29.6689 13.4128 27.7955 22.5249C26.5057 28.798 27.4251 34.4747 27.5878 35.379C27.6161 35.8098 27.653 36.2113 27.6945 36.5957C23.0153 37.173 20.0508 41.5793 20.0508 48.1537C20.0508 54.6315 23.0432 61.189 28.7625 61.189C29.8913 61.189 30.9897 60.9486 32.025 60.4856C33.0953 65.6993 35.6611 70.4907 39.5109 74.3405C42.6074 77.437 46.3129 79.7032 50.3574 81.0289V88.5323C50.3574 89.3613 49.7988 90.0937 48.9993 90.3131L35.3873 94.0446C29.5463 95.6468 25.4668 100.996 25.4668 107.053V116.271C25.4668 117.226 26.2407 118 27.1953 118H40.261C41.2156 118 41.9896 117.226 41.9896 116.271C41.9896 115.317 41.2156 114.543 40.261 114.543H28.9238V107.053C28.9238 102.548 31.9579 98.5703 36.3018 97.3784L42.3184 95.7291C44.4881 98.7895 49.2657 103.079 59.0002 103.079C68.7292 103.079 73.5112 98.8287 75.7021 95.7347L81.6982 97.3784C86.0425 98.5701 89.0764 102.548 89.0764 107.053V114.543H48.4872C47.5326 114.543 46.7586 115.317 46.7586 116.271C46.7586 117.226 47.5326 118 48.4872 118H90.8047C91.7593 118 92.5332 117.226 92.5332 116.271V107.053C92.5332 100.996 88.4537 95.6471 82.6122 94.0444L69.0012 90.3131C68.2012 90.0935 67.6423 89.3613 67.6423 88.532V80.9853C70.9938 79.8731 74.127 78.122 76.8496 75.7991C77.5758 75.1796 77.6622 74.0886 77.0425 73.3621C76.4227 72.6359 75.3319 72.5495 74.6055 73.1692C70.2476 76.8874 64.6882 78.9353 58.9511 78.9353C52.5303 78.9353 46.4941 76.4354 41.9548 71.8959C38.0006 67.9417 35.5947 62.8518 35.04 57.3611C35.0375 57.3406 35.0363 57.3201 35.0333 57.2996C34.9552 56.507 34.9156 55.7064 34.9156 54.8995V50.1401C35.4645 49.6752 36.291 48.9534 37.1195 48.1475C39.4685 45.8631 40.3689 44.3839 40.2279 43.0423C40.211 42.8826 40.1898 42.6973 40.1661 42.4908C39.9658 40.7397 39.3562 35.4113 41.0135 33.9292C41.1735 33.786 41.6598 33.3516 43.0866 33.6782C44.6729 34.0419 46.0608 34.3876 47.2855 34.6925C51.4545 35.7305 54.2086 36.4166 58.7714 36.4166C63.3342 36.4166 66.0885 35.7307 70.2572 34.6925C71.4817 34.3876 72.8698 34.0419 74.4559 33.6782C75.8832 33.3509 76.3693 33.7858 76.5292 33.9289C78.1865 35.4111 77.5769 40.7395 77.3767 42.4906C77.3529 42.6971 77.3319 42.8824 77.3149 43.0421C77.1706 44.4132 78.1513 45.9078 80.7 48.2007C81.5965 49.0073 82.4901 49.7296 83.0828 50.1947V54.8025C83.084 59.2927 81.8427 63.6741 79.4942 67.473V67.473ZM64.1855 81.8892V88.532C64.1855 90.9132 65.7896 93.0163 68.0867 93.6468L72.0789 94.7413C70.0355 97.0386 66.1494 99.6222 59 99.6222C51.8582 99.6222 47.9753 97.0207 45.9409 94.7358L49.9138 93.6466C52.2104 93.0163 53.8145 90.913 53.8145 88.5318V81.9139C55.4909 82.229 57.2086 82.3919 58.9516 82.3919C60.7186 82.3924 62.4709 82.2209 64.1855 81.8892V81.8892ZM28.7625 57.732C25.3495 57.732 23.5078 52.7969 23.5078 48.1537C23.5078 44.3505 24.7894 40.2982 28.3454 40.0045C28.7141 41.2576 29.1564 42.1818 29.571 43.0444C29.665 43.2401 29.7586 43.4348 29.8501 43.6314C30.4131 44.8435 31.1695 48.1316 31.4588 49.507V54.8995C31.4588 55.5368 31.4818 56.1705 31.5244 56.8004C30.665 57.4088 29.7236 57.732 28.7625 57.732V57.732ZM88.7494 42.0308C89.1633 41.4606 89.6332 40.8119 90.1036 40.0645C93.3186 40.6499 94.4922 44.5153 94.4922 48.1535C94.4922 52.7969 92.6505 57.7317 89.2375 57.7317C88.2737 57.7317 87.3299 57.4063 86.4684 56.7935C86.5159 56.1327 86.541 55.4688 86.541 54.8025V49.4411C86.7335 47.7116 87.2057 44.6833 87.6938 43.6321C87.8853 43.2207 88.2857 42.6695 88.7494 42.0308V42.0308Z" fill="#81B5FF"/>
<path d="M58.9999 76.9678C66.935 76.9678 71.6285 68.9283 73.2782 65.472C73.7188 64.549 73.5863 63.4881 72.9325 62.7032C72.2795 61.9196 71.2616 61.5983 70.2761 61.8642C70.2761 61.8642 70.2761 61.8642 70.2758 61.8642C63.2152 63.7714 54.7844 63.7716 47.7235 61.8642C46.7383 61.5985 45.7201 61.9196 45.0672 62.7032C44.4133 63.4879 44.2808 64.549 44.7215 65.4718C46.3714 68.9283 51.0649 76.9678 58.9999 76.9678ZM53.232 71.2692C55.3055 71.5174 57.2159 71.6458 58.9347 71.6458C60.6962 71.6458 62.6572 71.5119 64.7898 71.2515C63.1716 72.5732 61.2369 73.511 58.9999 73.511C56.7731 73.5108 54.8455 72.5815 53.232 71.2692ZM69.2816 65.6651C69.0039 66.156 68.6861 66.6808 68.33 67.2178C64.7434 67.8604 61.5814 68.1888 58.9345 68.1888C56.3253 68.1888 53.2129 67.8691 49.6867 67.2441C49.3235 66.6981 49.0003 66.1641 48.718 65.6651C55.2836 67.107 62.7162 67.107 69.2816 65.6651V65.6651Z" fill="#81B5FF"/>
<path d="M58.9999 61.6156C59.922 61.6156 60.8439 61.4661 61.9895 61.1669C62.9133 60.9258 63.4666 59.9814 63.2253 59.0579C62.984 58.1344 62.0398 57.5815 61.1163 57.8221C59.3954 58.2713 58.6046 58.2713 56.8837 57.8221C55.96 57.5813 55.016 58.1344 54.7747 59.0579C54.5337 59.9816 55.0868 60.9258 56.0105 61.1669C57.1559 61.4661 58.0778 61.6156 58.9999 61.6156V61.6156Z" fill="#81B5FF"/>
<path d="M46.0274 42.4343C48.4524 41.8012 49.6367 41.8012 52.062 42.4343C52.2083 42.4726 52.3551 42.4908 52.4996 42.4908C53.2671 42.4908 53.9679 41.9757 54.171 41.1986C54.4121 40.2749 53.8589 39.3306 52.9352 39.0896C49.9172 38.3016 48.1719 38.3018 45.1541 39.0896C44.2304 39.3306 43.6771 40.2751 43.9184 41.1986C44.1597 42.1223 45.1046 42.6752 46.0274 42.4343V42.4343Z" fill="#81B5FF"/>
<path d="M74.0816 41.1986C74.3227 40.2749 73.7696 39.3307 72.8459 39.0896C69.8281 38.3018 68.0828 38.3018 65.0648 39.0896C64.1411 39.3307 63.5877 40.2751 63.829 41.1986C64.032 41.976 64.7327 42.4909 65.5004 42.4909C65.6449 42.4909 65.7919 42.4724 65.938 42.4344C68.3635 41.8011 69.5476 41.8013 71.9726 42.4344C72.8968 42.6755 73.8406 42.1221 74.0816 41.1986Z" fill="#81B5FF"/>
<circle cx="92.5" cy="82.5" r="11.5" stroke="#81B5FF" stroke-width="2"/>
<path d="M95.3663 75.2791C94.8669 75.2791 94.3728 75.3804 93.9138 75.5771C93.1167 75.9189 92.2141 75.9189 91.417 75.5771C90.958 75.3804 90.4639 75.2791 89.9646 75.2791C87.9286 75.2791 86.2781 76.9293 86.2778 78.9652V78.9652C86.2778 80.5488 86.7227 82.1013 87.562 83.4441L87.6664 83.6107L88.8759 88.9324C88.9806 89.3934 89.3905 89.7206 89.8635 89.7206C90.3589 89.7209 90.7819 89.3629 90.8633 88.8744L91.6964 83.877C91.7753 83.4032 92.1849 83.0558 92.6654 83.0553C93.1461 83.0553 93.5563 83.4027 93.6355 83.877L94.4687 88.8744C94.55 89.3626 94.9724 89.7203 95.4673 89.7206C95.9403 89.7206 96.3502 89.3934 96.4549 88.9324L97.6644 83.6107L97.7688 83.4441C98.6081 82.1013 99.053 80.5494 99.053 78.9658C99.0533 76.9298 97.4022 75.2793 95.3663 75.2791V75.2791Z" fill="#81B5FF"/>
<path d="M87.9441 78.8904H87.3887C87.3887 77.3921 88.444 76.7855 88.9995 76.6742L89.1083 77.2185L89.055 76.9464L89.1106 77.2183C89.0633 77.2285 87.9441 77.4821 87.9441 78.8904Z" fill="#F7F7F7"/>
<path d="M90.1656 76.6677H89.6101V77.2232H90.1656V76.6677Z" fill="#F7F7F7"/>
</g>
<defs>
<clipPath id="clip0">
<rect width="118" height="118" fill="white"/>
</clipPath>
</defs>
</svg>
