<?xml version="1.0"?>
<svg xmlns="http://www.w3.org/2000/svg" xmlns:xlink="http://www.w3.org/1999/xlink" xmlns:svgjs="http://svgjs.com/svgjs" version="1.1" width="512" height="512" x="0" y="0" viewBox="0 0 512.002 512.002" style="enable-background:new 0 0 512 512" xml:space="preserve" class=""><g><g xmlns="http://www.w3.org/2000/svg"><path d="m17.317 428.268c4.143 0 7.5-3.357 7.5-7.5v-24.521c0-8.406 6.839-15.245 15.245-15.245h15.686l3.667 22.612c1.633 10.075 10.237 17.388 20.458 17.388 11.115 0 20.21-8.687 20.704-19.775l.491-11.027c.118-2.652 2.303-4.73 4.973-4.73 2.675 0 4.859 2.081 4.974 4.738l.473 10.987c.478 11.107 9.573 19.808 20.706 19.808 9.623.266 19.137-7.362 20.722-17.479l3.547-22.521h74.772c4.143 0 7.5-3.357 7.5-7.5s-3.357-7.5-7.5-7.5h-71.037c.966-2.272 2.116-4.493 3.466-6.647 4.441-7.09 6.888-14.663 6.888-21.326 0-22.39-15.545-38.026-37.802-38.026-11.102 0-20.612 5.451-26.554 9.933-5.729-4.497-15.101-9.933-26.946-9.933-22.196.21-37.698 15.847-37.698 38.026 0 6.729 2.485 14.366 6.997 21.505 1.32 2.088 2.451 4.25 3.405 6.469h-11.892c-16.677 0-30.245 13.568-30.245 30.245v24.521c0 4.14 3.357 7.498 7.5 7.498zm62.003-113.266c9.384 0 16.912 5.951 19.714 8.51 3.927 3.587 9.919 3.675 13.939.214 3.048-2.623 11.075-8.724 19.775-8.724 14.064 0 22.802 8.823 22.802 23.026 0 3.827-1.676 8.697-4.6 13.363-4.439 7.088-7.33 14.739-8.591 22.741l-4.262 27.056c-.288 1.868-2.354 4.604-5.905 4.813-3.076 0-5.588-2.395-5.72-5.452l-.473-10.987c-.46-10.707-9.228-19.094-19.96-19.094-10.716 0-19.482 8.374-19.957 19.063l-.491 11.026c-.137 3.053-2.648 5.443-5.72 5.443-2.825 0-5.201-2.014-5.651-4.788l-4.404-27.158c-1.296-7.986-4.186-15.568-8.59-22.536-2.972-4.703-4.677-9.62-4.677-13.491.002-14.069 8.754-22.892 22.771-23.025z" fill="#81b5ff" data-original="#000000" style="" class=""/><path d="m419.04 366.002h-11.843c.966-2.272 2.116-4.493 3.466-6.647 4.441-7.09 6.888-14.663 6.888-21.326 0-22.39-15.545-38.026-37.802-38.026-11.102 0-20.612 5.451-26.554 9.933-5.729-4.497-15.101-9.933-26.946-9.933-22.196.21-37.698 15.847-37.698 38.026 0 6.729 2.485 14.366 6.997 21.505 1.32 2.088 2.451 4.25 3.405 6.469h-32.677c-4.143 0-7.5 3.357-7.5 7.5s3.357 7.5 7.5 7.5h36.471l3.667 22.612c1.633 10.075 10.237 17.388 20.458 17.388 11.115 0 20.21-8.687 20.704-19.775l.491-11.027c.118-2.652 2.303-4.73 4.973-4.73 2.675 0 4.859 2.081 4.974 4.738l.473 10.987c.478 11.107 9.573 19.808 20.706 19.808 9.623.266 19.137-7.362 20.722-17.479l3.547-22.521h15.578c8.405 0 15.244 6.839 15.244 15.245v85.51c0 8.406-6.839 15.245-15.244 15.245h-378.978c-8.406 0-15.245-6.839-15.245-15.245v-26.074c0-4.143-3.357-7.5-7.5-7.5s-7.5 3.357-7.5 7.5v26.074c0 16.677 13.568 30.245 30.245 30.245h378.978c16.677 0 30.244-13.568 30.244-30.245v-85.51c0-16.678-13.567-30.247-30.244-30.247zm-33.941 35.187c-.288 1.868-2.354 4.604-5.905 4.813-3.076 0-5.588-2.395-5.72-5.452l-.473-10.987c-.46-10.707-9.228-19.094-19.96-19.094-10.716 0-19.482 8.374-19.957 19.063l-.491 11.026c-.137 3.053-2.648 5.443-5.72 5.443-2.825 0-5.201-2.014-5.651-4.788l-4.404-27.158c-1.296-7.986-4.186-15.568-8.59-22.536-2.972-4.703-4.677-9.62-4.677-13.491 0-14.07 8.752-22.894 22.77-23.026 9.384 0 16.912 5.951 19.714 8.51 3.927 3.587 9.919 3.675 13.939.214 3.048-2.623 11.075-8.724 19.775-8.724 14.064 0 22.802 8.823 22.802 23.026 0 3.827-1.676 8.697-4.6 13.363-4.439 7.088-7.33 14.739-8.591 22.741z" fill="#81b5ff" data-original="#000000" style="" class=""/><path d="m492.207 126.242c-28.888 10.069-79.076 15.544-112.115 15.349l-49.355-.44 1.209-26.572c16.178-.128 53.79.541 69.667-.584 4.135-.251 7.283-3.806 7.032-7.94s-3.813-7.31-7.94-7.032c-33.26 1.405-84.079.184-117.129.499-2.095-11.626-7.871-22.194-16.746-30.373l-.089-.082c-2.688-2.472-3.47-6.361-1.943-9.68l22.419-48.751c1.73-3.764.082-8.217-3.681-9.948-3.765-1.73-8.216-.083-9.948 3.681l-22.418 48.75c-4.256 9.251-2.077 20.098 5.416 26.987l.082.075c8.01 7.383 12.551 17.447 12.786 28.342.234 10.888-3.88 21.148-11.585 28.891-14.468 14.537-38.063 15.547-53.715 2.298-17.92-15.169-16.507-41.808-5.85-60.28l39.347-68.181c2.07-3.588.84-8.175-2.747-10.245-3.59-2.07-8.176-.841-10.245 2.747l-39.347 68.182c-7.459 12.929-11.239 29.088-9.303 44.441-2.666 2.986-5.132 6.166-7.335 9.502-6.672 10.103-11.973 21.058-15.756 32.559-1.294 3.935.847 8.174 4.782 9.468.778.256 1.567.377 2.344.377 3.151 0 6.086-2.002 7.124-5.159 3.366-10.236 8.084-19.986 14.023-28.979.004-.006.008-.011.012-.017 4.089 8.208 10.754 16.323 20.245 22.036-6.814 3.922-12.841 9.194-17.729 15.631l-.079.104c-7.59 9.998-12.327 21.876-13.7 34.352l-1.397 12.709c-3.37-7.623-5.414-15.818-5.991-24.158-.287-4.133-3.863-7.257-8.001-6.964-4.132.286-7.25 3.868-6.964 8.001 1.003 14.476 5.661 28.59 13.473 40.817l4.512 7.062c-.338 2.192-.522 4.463-.522 6.813 0 6.729 2.485 14.366 6.997 21.505 3.318 5.25 5.493 10.944 6.463 16.924l4.404 27.157c1.633 10.075 10.237 17.388 20.458 17.388 11.115 0 20.21-8.687 20.704-19.775l.491-11.027c.118-2.652 2.303-4.73 4.973-4.73 2.675 0 4.859 2.081 4.974 4.738l.473 10.987c.478 11.107 9.573 19.808 20.706 19.808 9.623.266 19.137-7.362 20.722-17.479l4.262-27.055c.944-5.992 3.127-11.75 6.486-17.113 4.441-7.09 6.888-14.663 6.888-21.326 0-2.388-.187-4.694-.53-6.918 18.686-25.147 23.233-58.136 11.84-87.685l74.621.665c33.747.182 86.467-5.443 117.179-16.19 3.909-1.367 5.971-5.646 4.603-9.556-1.368-3.912-5.646-5.976-9.557-4.606zm-176.479 14.775-41.091-.366c5.422-7.738 8.709-16.674 9.579-26.128l32.716.039zm-120.155 39.971.079-.104c7.076-9.321 17.312-15.39 28.861-17.146l10.245.019c11.5 1.785 21.697 7.856 28.742 17.14 5.963 7.859 9.676 17.198 10.735 27.007l.983 9.096c-5.449-2.898-11.865-4.497-18.97-4.497-11.102 0-20.612 5.451-26.554 9.933-5.729-4.497-15.101-9.933-26.946-9.933-7.083.067-13.48 1.711-18.914 4.632l1.017-9.245c1.077-9.778 4.79-19.088 10.722-26.902zm78.878 82.904c-4.439 7.088-7.33 14.739-8.591 22.741l-4.262 27.056c-.288 1.868-2.354 4.604-5.905 4.813-3.076 0-5.588-2.395-5.72-5.452l-.473-10.987c-.46-10.707-9.228-19.094-19.96-19.094-10.716 0-19.482 8.374-19.957 19.063l-.491 11.026c-.137 3.053-2.648 5.443-5.72 5.443-2.825 0-5.201-2.014-5.651-4.788l-4.404-27.158c-1.296-7.986-4.186-15.568-8.59-22.536-4.034-7.245-5.906-12.004-3.758-20.889 2.584-9.698 10.485-15.521 21.851-15.629 9.384 0 16.912 5.951 19.714 8.51 3.928 3.587 9.92 3.675 13.939.214 3.048-2.623 11.075-8.724 19.775-8.724 11.216 0 19.026 5.624 21.737 15.099 1.673 6.084 1.61 13.206-3.534 21.292zm20.192-91.333c3.627 14.291 2.285 32.214-4.126 46.382l-1.368-12.649c-1.353-12.516-6.09-24.433-13.699-34.461-4.849-6.391-11.23-12.4-17.977-16.317l31.824.269c2.181 5.455 3.979 11.079 5.346 16.776z" fill="#81b5ff" data-original="#000000" style="" class=""/><path d="m435.775 110.452c16.926-2.168 42.631-7.172 61.819-15.166 3.817-1.607 5.609-6.005 4.002-9.822-1.607-3.818-6.007-5.609-9.822-4.002-13.594 5.723-33.857 10.719-57.061 14.066-4.1.591-6.943 4.395-6.352 8.494.54 3.737 3.72 6.843 7.414 6.43z" fill="#81b5ff" data-original="#000000" style="" class=""/><path d="m229.364 85.952c-6.2.253-11.932 2.905-16.137 7.469-8.683 9.421-8.081 24.147 1.339 32.829 4.324 3.986 9.875 6.149 15.722 6.149 5.309.027 12.275-2.347 17.107-7.487 8.683-9.421 8.081-24.148-1.339-32.83-4.561-4.206-10.478-6.392-16.692-6.13zm7.002 28.794c-3.078 3.339-8.297 3.551-11.634.475-1.716-1.657-3.016-4.616-2.394-7.72.536-2.681 2.462-4.951 5.02-5.915 2.49-.938 5.661-.865 8.532 1.526 3.34 3.077 3.553 8.295.476 11.634z" fill="#81b5ff" data-original="#000000" style="" class=""/></g></g></svg>
