<?xml version="1.0"?>
<svg xmlns="http://www.w3.org/2000/svg" xmlns:xlink="http://www.w3.org/1999/xlink" xmlns:svgjs="http://svgjs.com/svgjs" version="1.1" width="512" height="512" x="0" y="0" viewBox="0 0 480 480" style="enable-background:new 0 0 512 512" xml:space="preserve" class=""><g>
<g xmlns="http://www.w3.org/2000/svg">
	<g>
		<path d="M99.56,129.344C82.326,140.808,71.979,160.142,72,180.84V192h16v-11.16c-0.017-15.349,7.658-29.686,20.44-38.184    L99.56,129.344z" fill="#81b5ff" data-original="#000000" style="" class=""/>
	</g>
</g>
<g xmlns="http://www.w3.org/2000/svg">
	<g>
		<path d="M327.991,245.265c-10.604,0.002-20.772,4.215-28.271,11.711l-11.248,11.248l-2.16,2.16    c-3.8,3.815-6.216,8.791-6.864,14.136l-0.592,4.992h0.08l-12.576,113.12c-0.932,8.205-8.339,14.101-16.544,13.169    c-6.622-0.752-11.947-5.797-13.056-12.369L219.832,302.4c-3.304-19.789-22.025-33.154-41.815-29.849    c-15.303,2.555-27.294,14.546-29.849,29.849l-16.864,101.104c-1.374,8.143-9.089,13.63-17.231,12.256    c-6.572-1.109-11.616-6.434-12.369-13.056L87.952,279.12c-0.111-0.938-0.381-1.85-0.8-2.696l-11.6-23.2    C62.73,227.495,56.038,199.147,56,170.4c0.006-32.253,26.157-58.395,58.41-58.39c7.895,0.001,15.707,1.604,22.966,4.71    c27.294,11.736,58.011,12.744,86.016,2.824l-5.328-15.088c-24.22,8.582-50.784,7.725-74.4-2.4    c-37.778-16.162-81.505,1.361-97.667,39.139C42.048,150.426,40.008,160.36,40,170.4c0.045,26.858,5.435,53.438,15.856,78.192    c-20.282-8.757-43.822,0.585-52.579,20.867C1.123,274.447,0.008,279.822,0,285.256V472c0,4.418,3.582,8,8,8h352    c4.418,0,8-3.582,8-8V285.256C367.995,263.165,350.083,245.26,327.991,245.265z M352,464H16V285.256    c0.016-6.362,2.543-12.46,7.032-16.968c9.493-9.072,24.443-9.072,33.936,0l15.384,15.376l13.432,120.8    c1.896,16.993,17.209,29.232,34.202,27.336c13.753-1.534,24.817-12.008,27.102-25.656l16.856-101.152    c1.857-11.077,12.342-18.55,23.419-16.693c8.555,1.435,15.258,8.138,16.693,16.693l16.856,101.136    c2.822,16.864,18.781,28.248,35.645,25.426c13.647-2.284,24.122-13.346,25.659-27.098l13.12-118    c0.201-1.796,1.005-3.471,2.28-4.752l13.416-13.416c9.493-9.072,24.443-9.072,33.936,0c4.489,4.508,7.016,10.606,7.032,16.968V464    z" fill="#81b5ff" data-original="#000000" style="" class=""/>
	</g>
</g>
<g xmlns="http://www.w3.org/2000/svg">
	<g>
		<path d="M360,0c-66.274,0-120,53.726-120,120c0.075,66.243,53.757,119.925,120,120c66.274,0,120-53.726,120-120S426.274,0,360,0z     M360,224c-57.438,0-104-46.562-104-104c0.066-57.41,46.59-103.934,104-104c57.438,0,104,46.562,104,104S417.438,224,360,224z" fill="#81b5ff" data-original="#000000" style="" class=""/>
	</g>
</g>
<g xmlns="http://www.w3.org/2000/svg">
	<g>
		<path d="M432,88h-40V48c0-4.418-3.582-8-8-8h-48c-4.418,0-8,3.582-8,8v40h-40c-4.418,0-8,3.582-8,8v48c0,4.418,3.582,8,8,8h40v40    c0,4.418,3.582,8,8,8h48c4.418,0,8-3.582,8-8v-40h40c4.418,0,8-3.582,8-8V96C440,91.582,436.418,88,432,88z M424,136h-40    c-4.418,0-8,3.582-8,8v40h-32v-40c0-4.418-3.582-8-8-8h-40v-32h40c4.418,0,8-3.582,8-8V56h32v40c0,4.418,3.582,8,8,8h40V136z" fill="#81b5ff" data-original="#000000" style="" class=""/>
	</g>
</g>
<g xmlns="http://www.w3.org/2000/svg">
</g>
<g xmlns="http://www.w3.org/2000/svg">
</g>
<g xmlns="http://www.w3.org/2000/svg">
</g>
<g xmlns="http://www.w3.org/2000/svg">
</g>
<g xmlns="http://www.w3.org/2000/svg">
</g>
<g xmlns="http://www.w3.org/2000/svg">
</g>
<g xmlns="http://www.w3.org/2000/svg">
</g>
<g xmlns="http://www.w3.org/2000/svg">
</g>
<g xmlns="http://www.w3.org/2000/svg">
</g>
<g xmlns="http://www.w3.org/2000/svg">
</g>
<g xmlns="http://www.w3.org/2000/svg">
</g>
<g xmlns="http://www.w3.org/2000/svg">
</g>
<g xmlns="http://www.w3.org/2000/svg">
</g>
<g xmlns="http://www.w3.org/2000/svg">
</g>
<g xmlns="http://www.w3.org/2000/svg">
</g>
</g></svg>
