<svg width="1883" height="1715" viewBox="0 0 1883 1715" fill="none" xmlns="http://www.w3.org/2000/svg">
<path d="M125.601 858.552L241 1030.5L344 1191.5L414.322 1340.21C419.761 1351.71 424.091 1363.71 427.251 1376.03L457.5 1494L483.397 1577.61C489.411 1597.03 499.053 1615.13 511.811 1630.95L521.663 1643.17C536.508 1661.59 556.786 1674.84 579.608 1681.06C610.984 1689.6 644.521 1684.12 671.55 1666.04L677.63 1661.98C697.168 1648.91 712.743 1630.73 722.658 1609.42L751 1548.5L798.668 1406.4C801.885 1396.81 805.824 1387.48 810.452 1378.49L848.853 1303.87C859.353 1283.47 875.985 1266.88 896.409 1256.42L897.823 1255.7C929.772 1239.34 967.801 1240.14 999.039 1257.81C1016.02 1267.42 1030.05 1281.5 1039.59 1298.52L1092 1392L1168.61 1575.3C1171.86 1583.07 1176.07 1590.4 1181.16 1597.11L1207.49 1631.88C1226.39 1656.84 1255.9 1671.5 1287.21 1671.5L1297.67 1671.5C1322.65 1671.5 1346.72 1662.15 1365.16 1645.29L1368.07 1642.63C1374.33 1636.9 1379.84 1630.4 1384.46 1623.27L1401.05 1597.71C1405.67 1590.6 1409.36 1582.93 1412.04 1574.89L1484.5 1357.5L1534.95 1238.7C1548.28 1207.32 1564.79 1177.38 1584.21 1149.35L1669 1027L1747.49 897.227C1761.48 874.114 1773.56 849.905 1783.63 824.84L1809.59 760.219C1828.42 713.344 1840.04 663.885 1844.05 613.528L1849.46 545.575C1853.79 491.224 1849.2 436.531 1835.87 383.662L1832.41 369.915C1817.95 312.56 1792.08 258.71 1756.34 211.581C1724.7 169.862 1685.87 134.125 1641.68 106.05L1639.94 104.945C1604.49 82.4251 1566.07 64.9618 1525.79 53.0601L1523.99 52.5286C1465.24 35.1689 1403.64 29.5917 1342.73 36.1178L1292.5 41.4999L1201.67 61.1308C1171.3 67.6931 1141.69 77.3376 1113.28 89.9143L1095.56 97.7607C1049.03 118.359 998.716 129 947.836 129C904.297 129 861.109 121.208 820.315 105.991L705.91 63.3181C640.357 38.8664 569.63 28.4921 499.795 32.7744C475.805 34.2455 451.689 37.4607 428.158 42.3629L366.147 55.282C343.227 60.0569 321.323 68.819 301.434 81.1692L243.076 117.406C209.857 138.033 179.7 163.226 153.489 192.244C133.223 214.682 115.419 239.317 100.46 265.592C77.3523 306.181 61.1358 350.443 52.5881 396.359L42.6906 449.527C31.98 507.062 31.4535 566.031 41.1351 623.748L47.6582 662.636C59.4174 732.739 85.989 799.53 125.601 858.552Z" stroke="#001D68" stroke-width="50"/>
<path d="M292 677V515.5C292 504.454 300.954 495.5 312 495.5H435.5C446.546 495.5 455.5 486.546 455.5 475.5V358C455.5 346.954 464.454 338 475.5 338H630.5C641.546 338 650.5 346.954 650.5 358V475.5C650.5 486.546 659.454 495.5 670.5 495.5H779C790.046 495.5 799 504.454 799 515.5V677C799 688.046 790.046 697 779 697H670.5C659.454 697 650.5 705.954 650.5 717V841.5C650.5 852.546 641.546 861.5 630.5 861.5H475.5C464.454 861.5 455.5 852.546 455.5 841.5L455.5 717C455.5 705.954 446.546 697 435.5 697H312C300.954 697 292 688.046 292 677Z" stroke="#001D68" stroke-width="50"/>
<path d="M1500.22 874.897C1500.41 874.633 1500.62 874.386 1500.85 874.16L1502.31 872.731C1514.17 861.15 1531.94 858.088 1546.99 865.034V865.034C1547.65 865.341 1548.24 865.791 1548.72 866.352L1560.3 880.107C1567.28 888.391 1568.12 900.226 1562.4 909.421L1541.5 943L1507 990.936L1463.86 1062.25C1462.96 1063.75 1461.9 1065.14 1460.7 1066.42L1446.61 1081.42C1442.07 1086.26 1435.74 1089 1429.11 1089V1089C1422.06 1089 1415.37 1085.9 1410.81 1080.53L1399.65 1067.38C1393.44 1060.08 1391.96 1049.87 1395.84 1041.1L1397.69 1036.91C1411.19 1006.34 1427.73 977.198 1447.06 949.927L1500.22 874.897Z" fill="#001D68"/>
<path d="M1576.5 822C1647 754 1651.5 670 1651.5 591C1651.5 413.993 1503 240.5 1314.5 251.5" stroke="#001D68" stroke-width="60"/>
<path d="M1617 815C1606.5 831.5 1601.5 850 1584.5 845C1566.55 845 1554.34 831.402 1552 815C1549.5 797.5 1568 789.5 1584.5 785C1602.45 785 1617 798.431 1617 815Z" fill="#001D68"/>
<ellipse cx="1319.5" cy="251.5" rx="25.5" ry="30.5" fill="#001D68"/>
</svg>
