<?xml version="1.0"?>
<svg xmlns="http://www.w3.org/2000/svg" xmlns:xlink="http://www.w3.org/1999/xlink" xmlns:svgjs="http://svgjs.com/svgjs" version="1.1" width="512" height="512" x="0" y="0" viewBox="0 0 24 24" style="enable-background:new 0 0 512 512" xml:space="preserve" class=""><g><path xmlns="http://www.w3.org/2000/svg" d="m3.75 18c-.257 0-.504-.133-.643-.364l-3-5c-.12-.199-.14-.442-.055-.659l4.5-11.5c.112-.288.389-.477.698-.477h3c.258 0 .497.132.634.351.138.218.153.49.042.723l-5.391 11.274.951 4.755c.072.358-.125.716-.465.847-.089.033-.181.05-.271.05z" fill="#81b5ff" data-original="#000000" style="" class=""/><path xmlns="http://www.w3.org/2000/svg" d="m20.25 18c-.09 0-.182-.017-.271-.051-.34-.131-.537-.488-.465-.847l.951-4.755-5.392-11.274c-.111-.232-.095-.505.042-.723.138-.218.377-.35.635-.35h3c.309 0 .586.189.698.477l4.5 11.5c.085.217.064.46-.055.659l-3 5c-.139.231-.386.364-.643.364z" fill="#81b5ff" data-original="#000000" style="" class=""/><path xmlns="http://www.w3.org/2000/svg" d="m14.578 24c-.839 0-1.564-.564-1.725-1.342l-.561-3.182c-.014-.063-.132-.154-.293-.154s-.279.091-.297.176l-.553 3.138c-.163.8-.888 1.364-1.727 1.364-.896 0-1.647-.635-1.747-1.476l-.216-1.827c-.013-.094-.111-.615-.63-3.013-.218-1.008-.329-2.043-.329-3.077 0-1.437 1.166-2.607 2.599-2.607.479 0 .951.131 1.363.379.949.572 2.127.572 3.074.001.414-.249.886-.38 1.365-.38 1.433 0 2.599 1.17 2.599 2.607 0 1.034-.111 2.069-.329 3.078-.519 2.396-.617 2.917-.631 3.015l-.215 1.824c-.099.841-.85 1.476-1.747 1.476z" fill="#81b5ff" data-original="#000000" style="" class=""/></g></svg>
