<?xml version="1.0"?>
<svg xmlns="http://www.w3.org/2000/svg" xmlns:xlink="http://www.w3.org/1999/xlink" xmlns:svgjs="http://svgjs.com/svgjs" version="1.1" width="512" height="512" x="0" y="0" viewBox="0 0 511.987 511.987" style="enable-background:new 0 0 512 512" xml:space="preserve" class=""><g><g xmlns="http://www.w3.org/2000/svg"><path d="m328.292 131.632c-3.902-3.908-10.233-3.912-14.142-.008-26.05 26.017-68.433 26.015-94.48 0-3.908-3.903-10.239-3.899-14.142.008s-3.899 10.239.008 14.142c16.921 16.9 39.147 25.351 61.374 25.351s44.452-8.45 61.373-25.351c3.909-3.903 3.913-10.234.009-14.142z" fill="#81b5ff" data-original="#000000" style=""/><path d="m65.694 35.41c5.523 0 10-4.477 10-10v-15.41c0-5.523-4.477-10-10-10s-10 4.477-10 10v15.41c0 5.523 4.477 10 10 10z" fill="#81b5ff" data-original="#000000" style=""/><path d="m65.694 93.752c5.523 0 10-4.477 10-10v-15.41c0-5.523-4.477-10-10-10s-10 4.477-10 10v15.41c0 5.523 4.477 10 10 10z" fill="#81b5ff" data-original="#000000" style=""/><path d="m87.187 56.876h15.428c5.523 0 10-4.477 10-10s-4.477-10-10-10h-15.428c-5.523 0-10 4.477-10 10s4.477 10 10 10z" fill="#81b5ff" data-original="#000000" style=""/><path d="m54.202 46.876c0-5.523-4.477-10-10-10h-15.428c-5.523 0-10 4.477-10 10s4.477 10 10 10h15.428c5.523 0 10-4.477 10-10z" fill="#81b5ff" data-original="#000000" style=""/><path d="m486.392 193.289c5.846-8.474 8.038-18.714 6.174-28.835-1.864-10.126-7.565-18.919-16.054-24.759-7.115-4.895-15.351-7.099-23.44-6.771-4.904-8.549-10.671-16.55-17.199-23.851-1.387-1.551-2.948-3.18-4.642-4.842-37.85-37.154-95.244-45.393-142.814-20.501-11.458 5.994-31.558 5.994-43.014 0-47.571-24.89-104.965-16.653-142.816 20.502-1.696 1.666-3.258 3.295-4.641 4.842-23.593 26.387-36.585 61.071-36.585 97.664 0 37.367 11.921 63.437 27.584 84.54-23.294 2.634-42.928 20.559-46.644 44.789-3.498 22.811 8.086 44.762 27.788 55.106-5.123 15.243-4.982 34.812 8.158 52.682 8.827 12.004 21.805 19.857 36.543 22.111 11.448 1.75 22.891-.038 33.06-5.052 7.079 22.058 23.642 39.464 45.672 47.101 7.772 2.694 15.705 3.974 23.543 3.973 31.255-.003 60.922-20.355 72.088-52.484.096-.276.19-.553.283-.83v31.644c0 2.939 1.293 5.73 3.536 7.63 1.819 1.542 4.114 2.37 6.464 2.37.546 0 1.096-.045 1.644-.136 27.138-4.521 50.169-18.335 66.602-39.952 15.824-20.815 24.188-47.005 24.188-75.739v-19.194c0-16.482 12.282-29.223 27.833-45.354 15.582-16.164 33.18-34.419 43.706-61.805 3.13-1.975 6.085-4.319 8.803-7.033 14.359-14.341 18.747-35.601 11.879-54.805.813-.963 1.58-1.967 2.301-3.011zm-216.129 259.649c-8.302 23.884-30.196 39.053-53.169 39.051-5.669 0-11.408-.925-17.021-2.87-19.554-6.779-33.199-24.292-35.61-45.704-.408-3.628-2.761-6.745-6.138-8.132-1.226-.503-2.515-.75-3.797-.75-2.25 0-4.475.759-6.284 2.22-1.179.952-2.456 1.932-3.796 2.915-7.712 5.656-17.171 7.974-26.633 6.527-9.46-1.447-17.79-6.486-23.454-14.189-13.477-18.326-5.136-36.269-2.259-41.331 1.525-2.683 1.726-5.92.543-8.771s-3.614-4.996-6.59-5.813c-16.224-4.454-26.535-20.357-23.984-36.994 2.773-18.083 19.772-30.537 37.878-27.769 3.39.519 6.648 1.54 9.686 3.037 4.322 2.128 9.549.875 12.433-2.989 14.682-19.667 39.453-27.712 61.64-20.022 13.656 4.734 24.582 14.757 30.764 28.224 6.248 13.61 6.915 29.088 1.875 43.59-.197.568-.403 1.132-.615 1.69-1.123 2.953-.784 6.263.914 8.927s4.554 4.37 7.705 4.6c4.505.329 8.971 1.252 13.273 2.743 13.657 4.734 24.583 14.757 30.764 28.224 6.246 13.61 6.913 29.089 1.875 43.586zm16.299-51.93c-8.437-18.378-23.385-32.104-42.113-38.679.876-11.489 10.514-20.66 22.236-20.777.077-.001.154-.001.232-.001 5.98 0 11.604 2.311 15.856 6.521 4.297 4.254 6.663 9.924 6.663 15.965v44.158c-.833-2.43-1.791-4.829-2.874-7.187zm118.743-94.945c-17.194 17.835-33.435 34.682-33.435 59.234v19.194c0 45.499-24.631 81.52-62.434 93.212v-113.665c0-11.421-4.472-22.139-12.593-30.178-8.131-8.05-18.907-12.409-30.359-12.306-10.558.105-20.22 4.105-27.617 10.617-1.063-7.182-3.139-14.224-6.22-20.937-8.479-18.468-23.533-32.239-42.39-38.775-26.752-9.274-56.117-2.045-76.361 17.931-16.746-19.131-32.534-43.621-32.534-83.652 0-31.667 11.185-61.617 31.495-84.333 1.096-1.226 2.355-2.538 3.743-3.9 31.636-31.056 79.673-37.908 119.532-17.053 17.258 9.03 44.299 9.03 61.557 0 39.858-20.855 87.896-14.004 119.531 17.052 1.385 1.36 2.646 2.673 3.744 3.902 4.189 4.685 8.014 9.709 11.439 15.017-8.156-6.346-19.458-10.467-32.952-7.984-10.582 1.946-19.771 7.892-25.876 16.741-4.008 5.81-6.372 12.414-6.973 19.255-14.951-1.082-29.586 4.146-40.359 14.906-9.69 9.677-15.026 22.671-15.026 36.588 0 14.627 5.805 28.479 16.345 39.005 10.854 10.84 25.033 16.29 39.041 16.29 13.38 0 26.603-4.974 36.615-14.973h.001c.343-.343.681-.69 1.014-1.042 10.03 6.967 21.796 10.256 33.331 9.835-9.139 16.035-21.25 28.598-32.259 40.019zm64.625-124.132c-1.088 1.577-2.396 2.964-3.887 4.122-3.813 2.962-4.965 8.226-2.738 12.509 6.789 13.061 4.689 28.489-5.226 38.391-12.702 12.685-33.961 12.095-47.386-1.312-.26-.259-.516-.522-.766-.787-2.168-2.296-5.294-3.434-8.428-3.066-3.135.365-5.914 2.189-7.496 4.921-1.346 2.323-3.001 4.473-4.919 6.389-12.702 12.686-33.961 12.094-47.391-1.317-6.757-6.748-10.478-15.574-10.478-24.854 0-8.57 3.253-16.538 9.159-22.437 6.01-6.002 14.038-9.177 22.438-9.177 3.817 0 7.713.656 11.527 2.001 3.446 1.213 7.276.455 9.997-1.982 2.72-2.436 3.896-6.161 3.067-9.718-.216-.929-.421-1.916-.609-2.939-.979-5.313.172-10.69 3.242-15.141 3.072-4.455 7.7-7.447 13.03-8.428 12.812-2.351 19.98 6.421 21.874 9.167 1.751 2.537 4.573 4.125 7.65 4.304 3.084.191 6.065-1.071 8.098-3.388 6.196-7.062 16.722-8.361 24.484-3.02 4.083 2.809 6.825 7.037 7.722 11.905.898 4.864-.155 9.785-2.964 13.857z" fill="#81b5ff" data-original="#000000" style=""/></g></g></svg>
